<svg xmlns="http://www.w3.org/2000/svg" width="220" height="72" viewBox="0 0 220 72" role="img" aria-label="VNPay QR">
  <rect width="220" height="72" rx="10" fill="#ffffff"/>
  <g transform="translate(14 13)">
    <path d="M18 2 2 18c-2 2-2 5 0 7l16 16c2 2 5 2 7 0l16-16c2-2 2-5 0-7L25 2c-2-2-5-2-7 0Z" fill="#005BAA"/>
    <path d="M28 9 9 28l9 9 19-19-9-9Z" fill="#E31B23"/>
    <path d="M18 11 11 18l7 7 7-7-7-7Z" fill="#ffffff" opacity=".9"/>
  </g>
  <text x="66" y="31" font-family="Arial, Helvetica, sans-serif" font-size="25" font-weight="800" fill="#005BAA">VN</text>
  <text x="105" y="31" font-family="Arial, Helvetica, sans-serif" font-size="25" font-weight="800" fill="#E31B23">PAY</text>
  <text x="159" y="31" font-family="Arial, Helvetica, sans-serif" font-size="16" font-weight="800" fill="#005BAA">QR</text>
  <text x="67" y="50" font-family="Arial, Helvetica, sans-serif" font-size="10" font-weight="700" fill="#E31B23">Cong thanh toan demo</text>
</svg>
